<svg id="Capa_1" data-name="Capa 1" xmlns="http://www.w3.org/2000/svg" viewBox="0 0 250 60"><defs><style>.cls-1{fill:#9bcd66;}.cls-2{fill:#0075bf;}.cls-3{fill:none;}</style></defs><title>Mesa de trabajo 1 copia</title><circle class="cls-1" cx="53.8" cy="28.14" r="7.77"/><path class="cls-2" d="M14.06,35H13v0a8.89,8.89,0,0,0-2.91.78,8.91,8.91,0,0,0-3.47,2.55A8.46,8.46,0,0,0,4.73,41a8.51,8.51,0,0,0-1.16,4.27v.24h16V40.25A6.37,6.37,0,0,1,14.06,35Z"/><path class="cls-2" d="M19.24,35H15.75a4.7,4.7,0,0,0,9.15,0H19.24Z"/><path class="cls-2" d="M30.55,20.2a10.46,10.46,0,1,0-1.25,7.61,9.12,9.12,0,0,1,1.25-7.61Z"/><path class="cls-3" d="M30,26.51a8.25,8.25,0,1,0,.8-4.87q0,.39,0,.78A10.52,10.52,0,0,1,30,26.51Z"/><path class="cls-2" d="M29.88,25.35a8.25,8.25,0,0,1,.88-3.71,11.35,11.35,0,0,0-.21-1.44,9.12,9.12,0,0,0-1.25,7.61,10.57,10.57,0,0,0,.66-1.3A8.92,8.92,0,0,1,29.88,25.35Z"/><path class="cls-1" d="M38.13,16.18a9.17,9.17,0,1,0,9.16,9.17A9.14,9.14,0,0,0,38.13,16.18Zm0,17.42A8.27,8.27,0,0,1,30,26.51a8.92,8.92,0,0,1-.08-1.16,8.25,8.25,0,1,1,8.25,8.25Z"/><path class="cls-2" d="M24.42,41.54A7.36,7.36,0,0,1,26,39.3a8.44,8.44,0,0,1,5.45-2.9v0h.21a7.86,7.86,0,0,0-1.13-.55A8.19,8.19,0,0,0,27,35h-.41a6.35,6.35,0,0,1-5.44,5.21v5.23h2.28v-.21A7.4,7.4,0,0,1,24.42,41.54Z"/><path class="cls-1" d="M43.43,36.38H31.48v0A8.44,8.44,0,0,0,26,39.3a7.36,7.36,0,0,0-1.61,2.24,7.4,7.4,0,0,0-1,3.71v.21h1v0A7.33,7.33,0,0,1,25.29,42a6.93,6.93,0,0,1,1.43-2.09,6.86,6.86,0,0,1,2.61-2.08,6.29,6.29,0,0,1,2.19-.63v0H42.06a5.74,5.74,0,0,1,2.3.48l2-.58A7,7,0,0,0,43.43,36.38Z"/><path class="cls-1" d="M65.85,42a6.13,6.13,0,0,0-1.44-1.91,7.45,7.45,0,0,0-5.32-2.47H48.47a7.14,7.14,0,0,0-2.21.58,6.83,6.83,0,0,0-2.63,1.88A6.13,6.13,0,0,0,42.19,42a6,6,0,0,0-.88,3.15v.17H66.73v-.17A6,6,0,0,0,65.85,42Z"/><path class="cls-2" d="M75.06,19v-2.1a.91.91,0,1,1,1.82,0v8.08a.91.91,0,1,1-1.82,0V20.52H71.7v4.42a.91.91,0,1,1-1.82,0V16.86a.91.91,0,1,1,1.82,0V19Z"/><path class="cls-2" d="M81.47,26a3.48,3.48,0,0,1-3.56-3.76,3.57,3.57,0,1,1,7.12,0A3.47,3.47,0,0,1,81.47,26Zm0-6c-1.18,0-1.73,1-1.73,2.2s.55,2.2,1.73,2.2,1.74-1,1.74-2.2S82.66,20,81.47,20Z"/><path class="cls-2" d="M86.38,25.88a.79.79,0,1,1,0-1.57H89c.69,0,1.24-.16,1.24-.94,0-1.49-4.56.09-4.56-2.94,0-1.31.87-1.91,2.46-1.91h2.43a.79.79,0,1,1,0,1.57H88c-.26,0-.62,0-.62.36,0,1,4.56-.12,4.56,2.94,0,1.75-1.22,2.49-2.85,2.49Z"/><path class="cls-2" d="M94.66,25.88V28a.87.87,0,1,1-1.74,0V19.28c0-.55.42-.84,1.64-.84,3.53,0,5.09,2,5.09,4.15,0,1.81-1.24,3.29-3.61,3.29Zm0-1.57h.87c1.43,0,2.3-.58,2.3-1.66,0-1.61-1.21-2.59-3.17-2.65Z"/><path class="cls-2" d="M102.67,16.61a1,1,0,1,1-1.91,0,1,1,0,1,1,1.91,0ZM102.58,25a.87.87,0,1,1-1.74,0v-5.6a.87.87,0,1,1,1.74,0Z"/><path class="cls-2" d="M106.55,20.09V23c0,.87.17,1.28.84,1.28h.92a.79.79,0,0,1,.88.82c0,.57-.39.83-1.17.83-2.2,0-3.21,0-3.21-2.67V20.09h-.49a.79.79,0,1,1,0-1.57h.49V17.29a.87.87,0,1,1,1.74,0v1.23h1.27a.79.79,0,1,1,0,1.57Z"/><path class="cls-2" d="M115.43,25c0,.59-.21.95-.85.95-.48,0-.7-.29-.74-.84a2.72,2.72,0,0,1-2.24.84,2.31,2.31,0,0,1-2.54-2.28c0-2.09,2.34-2.65,4-2.65h.61c0-.74-.19-.94-.58-.94h-2.65a.79.79,0,1,1,0-1.57H113c1.54,0,2.43.68,2.43,2.46Zm-1.65-2.68c-2,0-3,.58-3,1.26s.46,1,1.33,1a1.5,1.5,0,0,0,1.65-1.31Z"/><path class="cls-2" d="M119.2,25a.87.87,0,1,1-1.74,0V16.53a.87.87,0,1,1,1.74,0Z"/><path class="cls-2" d="M125.07,16.86a.92.92,0,1,1,1.83,0v7.28h2.79a.87.87,0,1,1,0,1.74h-3.36c-1,0-1.26-.49-1.26-1.25Z"/><path class="cls-2" d="M134.12,26a3.47,3.47,0,0,1-3.56-3.76,3.57,3.57,0,1,1,7.12,0A3.47,3.47,0,0,1,134.12,26Zm0-6c-1.19,0-1.74,1-1.74,2.2s.55,2.2,1.74,2.2,1.74-1,1.74-2.2S135.31,20,134.12,20Z"/><path class="cls-2" d="M143.91,18.52a.83.83,0,1,1,0,1.65h-2.19a1.47,1.47,0,0,0-1.56,1.48c0,1.74,1.4,2.58,3.34,2.58,1.2,0,1.49.19,1.49.84s-.37.81-1.73.81c-3.51,0-5-2.23-5-4.19a3,3,0,0,1,3.12-3.17Z"/><path class="cls-2" d="M151.46,25c0,.59-.21.95-.85.95-.48,0-.69-.29-.74-.84a2.72,2.72,0,0,1-2.24.84,2.31,2.31,0,0,1-2.54-2.28c0-2.09,2.34-2.65,4-2.65h.61c0-.74-.19-.94-.58-.94H146.5a.79.79,0,1,1,0-1.57H149c1.54,0,2.43.68,2.43,2.46Zm-1.65-2.68c-2,0-3,.58-3,1.26s.47,1,1.33,1a1.5,1.5,0,0,0,1.65-1.31Z"/><path class="cls-2" d="M155.23,25a.87.87,0,1,1-1.74,0V16.53a.87.87,0,1,1,1.74,0Z"/><path class="cls-2" d="M167.2,25.11c0,.45-.19.77-.87.77h-2.24c-2.41,0-3.59-1.48-3.59-3.22,0-2.17,1.63-4.22,5-4.22V16.53a.87.87,0,1,1,1.74,0ZM165.46,20a2.93,2.93,0,0,0-3.14,2.65,1.54,1.54,0,0,0,1.56,1.66h1.58Z"/><path class="cls-2" d="M172.27,25.88c-2.58,0-4-1.42-4-3.58a3.6,3.6,0,0,1,3.64-3.86,3.12,3.12,0,0,1,3.41,3.3c0,.49-.1.85-.71.85h-4.43c.12,1.36,1.15,1.72,2.36,1.72h1.87a.79.79,0,1,1,0,1.57Zm1.2-4.59a1.72,1.72,0,0,0-1.59-1.41,1.74,1.74,0,0,0-1.61,1.41Z"/><path class="cls-2" d="M184,24.94a.91.91,0,1,1-1.82,0V17.66h-1.68a.87.87,0,1,1,0-1.74h5.18a.87.87,0,1,1,0,1.74H184Z"/><path class="cls-2" d="M191.84,25c0,.59-.22.95-.86.95-.47,0-.69-.29-.73-.84A2.76,2.76,0,0,1,188,26a2.3,2.3,0,0,1-2.53-2.28c0-2.09,2.33-2.65,4-2.65h.61c0-.74-.19-.94-.58-.94h-2.65a.79.79,0,1,1,0-1.57h2.54A2.14,2.14,0,0,1,191.84,21Zm-1.65-2.68c-2,0-3,.58-3,1.26s.46,1,1.33,1a1.5,1.5,0,0,0,1.65-1.31Z"/><path class="cls-2" d="M199.87,25A.84.84,0,0,1,199,26a.8.8,0,0,1-.87-.78,2.58,2.58,0,0,1-1.95.78,2.48,2.48,0,0,1-2.58-2.6v-4a.87.87,0,1,1,1.74,0V22.9c0,1,.39,1.5,1.17,1.5,1,0,1.62-.68,1.62-2v-3a.87.87,0,1,1,1.74,0Z"/><path class="cls-2" d="M201.41,19.32c0-.59.29-.88.79-.88.32,0,.73,0,.78.69l0,.45h0a1.3,1.3,0,0,1,1.48-1.14c.64,0,.9.34.9.84s-.38.81-1,.81c-.86,0-1.28.34-1.28,1.68v3.17a.87.87,0,1,1-1.73,0Z"/><path class="cls-2" d="M211.67,25c0,.59-.22.95-.85.95-.48,0-.7-.29-.74-.84a2.76,2.76,0,0,1-2.25.84,2.3,2.3,0,0,1-2.53-2.28c0-2.09,2.33-2.65,4-2.65h.61c0-.74-.19-.94-.58-.94H206.7a.79.79,0,1,1,0-1.57h2.54A2.14,2.14,0,0,1,211.67,21ZM210,22.33c-2,0-3,.58-3,1.26s.46,1,1.33,1A1.5,1.5,0,0,0,210,23.26Z"/><path class="cls-2" d="M213.41,19.28a.75.75,0,0,1,.78-.84.73.73,0,0,1,.78.78,2.61,2.61,0,0,1,1.84-.78,2.33,2.33,0,0,1,2,1.08,3.41,3.41,0,0,1,2.33-1.08,2.48,2.48,0,0,1,2.57,2.6V25A.87.87,0,1,1,222,25V21.77c0-1-.21-1.77-1.18-1.77-.76,0-1.39.67-1.39,2V25a.87.87,0,1,1-1.73,0V21.77c0-1-.21-1.77-1.18-1.77-.76,0-1.39.67-1.39,2V25a.87.87,0,1,1-1.73,0Z"/><path class="cls-2" d="M228.77,25.88c-2.58,0-4-1.42-4-3.58a3.6,3.6,0,0,1,3.63-3.86,3.12,3.12,0,0,1,3.42,3.3c0,.49-.1.85-.71.85h-4.43c.12,1.36,1.15,1.72,2.36,1.72h1.87a.79.79,0,1,1,0,1.57Zm1.2-4.59a1.61,1.61,0,0,0-3.2,0Z"/><path class="cls-2" d="M232.82,19.38a.84.84,0,0,1,.87-.94.8.8,0,0,1,.87.78,2.58,2.58,0,0,1,1.95-.78,2.49,2.49,0,0,1,2.58,2.6V25a.87.87,0,1,1-1.74,0V21.51c0-1-.39-1.51-1.17-1.51-1,0-1.62.68-1.62,2V25a.87.87,0,1,1-1.74,0Z"/><path class="cls-2" d="M246.43,25c0,.59-.22.95-.86.95-.48,0-.69-.29-.74-.84a2.72,2.72,0,0,1-2.24.84,2.3,2.3,0,0,1-2.53-2.28c0-2.09,2.33-2.65,4-2.65h.61c0-.74-.19-.94-.58-.94h-2.65a.79.79,0,1,1,0-1.57H244A2.14,2.14,0,0,1,246.43,21Zm-1.65-2.68c-2,0-3,.58-3,1.26s.47,1,1.34,1a1.5,1.5,0,0,0,1.65-1.31Z"/><path class="cls-1" d="M70.85,34.06H73.1a.54.54,0,1,1,0,1.07H70.85v2.44H73.2a.54.54,0,1,1,0,1.07H70.43c-.62,0-.82-.32-.82-.81v-5c0-.36.2-.64.52-.64H73.2a.54.54,0,1,1,0,1.07H70.85Z"/><path class="cls-1" d="M74.5,34.36a.49.49,0,0,1,.51-.55.48.48,0,0,1,.51.51,1.68,1.68,0,0,1,1.19-.51,1.49,1.49,0,0,1,1.31.71,2.22,2.22,0,0,1,1.51-.71A1.61,1.61,0,0,1,81.2,35.5v2.56a.56.56,0,1,1-1.12,0V36c0-.64-.13-1.14-.76-1.14s-.9.43-.9,1.31v1.92a.57.57,0,1,1-1.13,0V36c0-.64-.13-1.14-.76-1.14s-.9.43-.9,1.31v1.92a.57.57,0,1,1-1.13,0Z"/><path class="cls-1" d="M83.25,38.64V40a.56.56,0,1,1-1.12,0V34.36c0-.36.27-.55,1.06-.55,2.29,0,3.3,1.34,3.3,2.7a2.11,2.11,0,0,1-2.35,2.13Zm0-1h.57c.92,0,1.49-.37,1.49-1.07,0-1-.79-1.68-2.06-1.72Z"/><path class="cls-1" d="M87.17,34.39c0-.39.18-.58.51-.58a.43.43,0,0,1,.51.45l0,.3h0a.84.84,0,0,1,1-.75.51.51,0,0,1,.59.55c0,.36-.25.52-.65.52-.56,0-.83.23-.83,1.09V38a.56.56,0,1,1-1.12,0Z"/><path class="cls-1" d="M92.34,38.64c-1.67,0-2.61-.92-2.61-2.32a2.34,2.34,0,0,1,2.35-2.51A2,2,0,0,1,94.3,36c0,.32-.07.56-.46.56H91c.07.88.74,1.11,1.53,1.11h1.21a.51.51,0,1,1,0,1Zm.78-3a1,1,0,0,0-2.08,0Z"/><path class="cls-1" d="M95.2,38.64a.51.51,0,1,1,0-1h1.69c.45,0,.81-.1.81-.61,0-1-3,.06-3-1.9,0-.85.56-1.24,1.6-1.24h1.57a.51.51,0,1,1,0,1H96.27c-.17,0-.4,0-.4.24,0,.65,2.95-.08,2.95,1.9,0,1.14-.78,1.62-1.85,1.62Z"/><path class="cls-1" d="M103.26,38.07c0,.39-.14.62-.55.62s-.45-.18-.48-.54a1.76,1.76,0,0,1-1.45.54,1.5,1.5,0,0,1-1.65-1.48c0-1.35,1.52-1.72,2.61-1.72h.4c0-.47-.12-.61-.38-.61H100a.51.51,0,1,1,0-1h1.65c1,0,1.57.44,1.57,1.6Zm-1.07-1.73c-1.3,0-1.93.37-1.93.82s.3.63.86.63a1,1,0,0,0,1.07-.85Z"/><path class="cls-1" d="M108.51,33.31c-.29,0-.45.13-.45.37,0,.86,3.78.07,3.78,2.69a2.3,2.3,0,0,1-2.49,2.27h-2a.57.57,0,1,1,0-1.13h1.54c1.22,0,1.73-.3,1.73-1.1,0-1.71-3.78-.34-3.78-2.71,0-1,.74-1.52,1.92-1.52h1.94a.57.57,0,1,1,0,1.13Z"/><path class="cls-1" d="M114.57,38.69a2.25,2.25,0,0,1-2.3-2.44,2.31,2.31,0,1,1,4.61,0A2.25,2.25,0,0,1,114.57,38.69Zm0-3.86c-.77,0-1.12.67-1.12,1.42s.35,1.43,1.12,1.43,1.13-.68,1.13-1.43S115.34,34.83,114.57,34.83Z"/><path class="cls-1" d="M120.92,33.87a.54.54,0,1,1,0,1.07H119.5a1,1,0,0,0-1,1c0,1.12.91,1.67,2.17,1.67.78,0,1,.12,1,.54s-.24.53-1.12.53c-2.27,0-3.25-1.45-3.25-2.71a2,2,0,0,1,2-2.06Z"/><path class="cls-1" d="M123.33,32.63a.62.62,0,1,1-.62-.69A.61.61,0,0,1,123.33,32.63Zm0,5.43a.57.57,0,1,1-1.13,0V34.42a.57.57,0,1,1,1.13,0Z"/><path class="cls-1" d="M128.19,38.07c0,.39-.14.62-.55.62s-.45-.18-.48-.54a1.76,1.76,0,0,1-1.45.54,1.5,1.5,0,0,1-1.65-1.48c0-1.35,1.52-1.72,2.61-1.72h.4c0-.47-.12-.61-.38-.61H125a.51.51,0,1,1,0-1h1.65c1,0,1.57.44,1.57,1.6Zm-1.07-1.73c-1.3,0-1.93.37-1.93.82s.3.63.86.63a1,1,0,0,0,1.07-.85Z"/><path class="cls-1" d="M130.63,38.06a.56.56,0,1,1-1.12,0V32.58a.56.56,0,1,1,1.12,0Z"/><path class="cls-1" d="M138.4,38.14c0,.29-.13.5-.57.5h-1.45a2.08,2.08,0,0,1-2.33-2.09c0-1.4,1.06-2.74,3.22-2.74V32.58a.57.57,0,1,1,1.13,0Zm-1.13-3.31a1.9,1.9,0,0,0-2,1.72,1,1,0,0,0,1,1.07h1Z"/><path class="cls-1" d="M141.68,38.64c-1.67,0-2.61-.92-2.61-2.32a2.34,2.34,0,0,1,2.36-2.51A2,2,0,0,1,143.64,36c0,.32-.06.56-.46.56h-2.87c.08.88.74,1.11,1.53,1.11h1.21a.51.51,0,1,1,0,1Zm.78-3a1.11,1.11,0,0,0-1-.91,1.13,1.13,0,0,0-1,.91Z"/><path class="cls-1" d="M145.61,38.06a.57.57,0,1,1-1.13,0V32.58a.57.57,0,1,1,1.13,0Z"/><path class="cls-1" d="M150.63,34.06h2.25a.54.54,0,1,1,0,1.07h-2.25v2.44H153a.54.54,0,1,1,0,1.07h-2.76c-.62,0-.82-.32-.82-.81v-5c0-.36.2-.64.52-.64H153a.54.54,0,1,1,0,1.07h-2.34Z"/><path class="cls-1" d="M154.53,38.64a.51.51,0,1,1,0-1h1.69c.45,0,.81-.1.81-.61,0-1-3,.06-3-1.9,0-.85.57-1.24,1.6-1.24h1.57a.51.51,0,1,1,0,1H155.6c-.17,0-.4,0-.4.24,0,.65,3-.08,3,1.9,0,1.14-.79,1.62-1.85,1.62Z"/><path class="cls-1" d="M160.25,34.88v1.86c0,.57.11.83.54.83h.6a.52.52,0,0,1,.58.53c0,.37-.26.54-.76.54-1.43,0-2.09,0-2.09-1.73v-2h-.32a.51.51,0,1,1,0-1h.32v-.8a.57.57,0,1,1,1.13,0v.8h.82a.51.51,0,1,1,0,1Z"/><path class="cls-1" d="M166,38.07c0,.39-.14.62-.55.62s-.45-.18-.48-.54a1.77,1.77,0,0,1-1.46.54,1.5,1.5,0,0,1-1.64-1.48c0-1.35,1.51-1.72,2.61-1.72h.4c0-.47-.13-.61-.38-.61h-1.72a.51.51,0,1,1,0-1h1.65c1,0,1.57.44,1.57,1.6Zm-1.07-1.73c-1.3,0-1.93.37-1.93.82s.3.63.86.63a1,1,0,0,0,1.07-.85Z"/><path class="cls-1" d="M171.21,38.14c0,.29-.12.5-.56.5h-1.46a2.07,2.07,0,0,1-2.32-2.09c0-1.4,1.06-2.74,3.22-2.74V32.58a.56.56,0,1,1,1.12,0Zm-1.12-3.31a1.9,1.9,0,0,0-2,1.72,1,1,0,0,0,1,1.07h1Z"/><path class="cls-1" d="M174.18,38.69a2.25,2.25,0,0,1-2.31-2.44,2.31,2.31,0,1,1,4.62,0A2.26,2.26,0,0,1,174.18,38.69Zm0-3.86c-.77,0-1.13.67-1.13,1.42s.36,1.43,1.13,1.43,1.12-.68,1.12-1.43S175,34.83,174.18,34.83Z"/></svg>